<?xml version="1.0" standalone="no"?>
<!DOCTYPE svg PUBLIC "-//W3C//DTD SVG 20010904//EN"
 "http://www.w3.org/TR/2001/REC-SVG-20010904/DTD/svg10.dtd">
<svg version="1.0" xmlns="http://www.w3.org/2000/svg"
 width="28.000000pt" height="28.000000pt" viewBox="0 0 28.000000 28.000000"
 preserveAspectRatio="xMidYMid meet">

<g transform="translate(0.000000,28.000000) scale(0.100000,-0.100000)"
fill="#000000" stroke="none">
<path d="M0 140 l0 -140 50 0 c36 0 50 4 50 14 0 9 8 12 25 8 14 -2 25 -8 25
-12 0 -4 29 -8 65 -9 l65 -2 0 140 0 141 -140 0 -140 0 0 -140z m170 105 c16
-19 14 -21 -35 -29 -32 -4 -35 -4 -16 4 15 7 21 16 17 25 -7 20 18 20 34 0z
m-15 -95 c3 -5 -1 -10 -10 -10 -9 0 -13 5 -10 10 3 6 8 10 10 10 2 0 7 -4 10
-10z m55 -55 c0 -28 -11 -37 -30 -25 -12 7 -12 13 -1 34 16 29 31 25 31 -9z
m-106 2 c12 -19 3 -32 -19 -24 -17 7 -21 51 -3 45 6 -2 16 -12 22 -21z"/>
</g>
</svg>
